<svg xmlns="http://www.w3.org/2000/svg" width="32" height="32" viewBox="0 0 1024 1024">
  <rect width="1024" height="1024" fill="#1e293b" rx="150" />
  <g>
    <path
      d="M 357.00 697.94 C325.20,694.04 294.73,683.28 271.81,667.88 C229.11,639.16 203.18,600.02 193.37,549.50 C190.91,536.81 190.65,533.30 190.59,512.00 C190.51,484.00 192.22,472.62 200.08,448.63 C217.60,395.22 258.10,354.32 312.12,335.51 C345.31,323.95 385.93,321.68 419.00,329.55 C459.33,339.13 492.87,358.60 500.13,376.62 C502.01,381.30 502.49,384.34 502.49,391.54 C502.48,399.73 502.17,401.21 499.21,407.23 C489.94,426.06 466.29,434.81 448.77,425.89 C446.42,424.69 441.18,421.48 437.13,418.74 C420.04,407.22 396.88,400.01 377.00,400.01 C368.96,400.01 353.76,402.41 344.64,405.11 C314.33,414.11 289.83,437.31 278.31,467.92 C271.77,485.27 268.94,506.74 270.89,524.09 C275.95,569.05 301.65,602.96 341.50,617.26 C353.95,621.73 364.25,623.37 380.00,623.39 C402.26,623.42 418.01,619.55 439.50,608.78 C453.35,601.84 462.83,595.11 474.37,584.00 C484.97,573.80 488.25,569.98 509.49,543.00 C517.08,533.38 525.68,522.74 528.62,519.37 L 533.95 513.25 L 534.23 434.37 L 534.50 355.50 L 536.91 349.50 C538.66,345.15 541.13,341.69 545.91,336.91 C554.87,327.94 560.81,325.58 574.50,325.54 C583.65,325.50 585.05,325.76 591.00,328.60 C597.89,331.88 604.31,337.46 608.39,343.71 C613.77,351.95 614.00,354.90 614.00,416.51 L 614.00 473.23 L 617.25 472.48 C619.04,472.06 650.54,471.54 687.25,471.32 L 754.00,470.91 L 754.01,415.20 C754.02,371.93 754.32,358.38 755.36,354.50 C759.91,337.47 773.64,326.21 791.09,325.20 C809.29,324.15 824.64,333.59 831.23,349.89 L 833.50,355.50 L 833.76,509.95 C834.05,677.02 834.28,668.64 828.96,679.07 C825.90,685.08 818.47,691.88 811.22,695.31 C804.92,698.30 803.81,698.50 793.50,698.48 C783.61,698.46 781.94,698.18 776.96,695.76 C769.69,692.21 763.86,687.13 760.15,681.08 C753.96,671.03 754.00,671.54 754.00,605.82 L 754.00,546.00 L 693.75,546.03 C628.14,546.07 624.81,546.30 610.94,551.70 C595.05,557.88 585.90,566.06 567.47,590.57 C546.89,617.92 534.16,632.05 516.50,647.13 C496.05,664.59 483.03,673.08 463.04,681.98 C448.98,688.25 436.92,692.10 420.50,695.56 C409.05,697.97 404.94,698.33 386.00,698.58 C374.17,698.73 361.12,698.44 357.00,697.94 ZM 562.50 697.60 C551.01,693.95 543.40,687.60 538.40,677.49 C535.61,671.85 534.62,668.45 534.25,663.21 L 533.76,656.33 L 538.19,652.70 C546.71,645.72 567.97,620.85 584.52,598.50 C589.00,592.45 595.10,585.10 598.08,582.16 C603.81,576.51 611.14,571.00 612.93,571.00 C614.71,571.00 614.31,662.90 612.50,670.48 C609.69,682.25 599.17,693.26 587.14,697.02 C579.86,699.29 568.67,699.55 562.50,697.60 Z"
      fill="#60a5fa" />
  </g>
</svg>